<svg xmlns="http://www.w3.org/2000/svg" viewBox="0 0 125 125"><title>Artboard 1 copy</title><g id="person_11" data-name="person 11"><path id="neck-2" data-name="neck" d="M73.51,72.76s.74,10.33,1.36,11.35,3.34,2,5.63,2.89l5.26,2s-3.17,6.14-8,9-18.59,2.58-23.86,1.35S38.59,88.11,38.59,88.11s11.47-3.32,13.11-4.4,1.39-10.95,1.39-10.95Z" fill="#fce7d4" stroke="#020202" stroke-miterlimit="10" stroke-width="0.75"/><path id="jacket-2" data-name="jacket" d="M66.7,80.85c7-2.1,8.93-11.9,8.93-11.9-.15-1.17,0,3.29,0,3.47.06.55-.17,1.08-.13,1.62a3.73,3.73,0,0,0,.81,1.85c.45.58,1,1,1.53,1.51a13.37,13.37,0,0,1,.93,1.66c.49.71,1.17.78,1.88,1.15,1,.52,1.39.91,2.36,1.44l5.85,3.13c4.15,2.2,8.34,4.35,12.62,6.29,5.18,2.35,11,6.56,13.17,10.63s4.5,24.53,4.5,24.53L6.43,127.39s.27.93.93-2.13c2.52-11.65,1.6-27.82,14.47-33,.22-.09,2.29-1.14,2.5-1.25,5.43-2.65,11.88-5.31,17.32-7.93,1.08-.52,2.15-1.09,3.25-1.57a4.49,4.49,0,0,0,2-1.67c1.37-1.77,4.42-1.65,4.49-4.42a8.53,8.53,0,0,1,0-1.52,6.4,6.4,0,0,0,.42-1.54c0-.06-.39-3.64-.4-3.64S58,79.42,63.76,81.24l1.65,6.11Z" fill="#fcd8d6" stroke="#020202" stroke-miterlimit="10" stroke-width="0.75"/><path id="jacket_stripe" data-name="jacket stripe" d="M100.25,126.34H25c2.36,0,.24-9.19,1.59-10.06.39-.26,1.8,0,2.26,0H89.39c3.13,0,6.54-.47,9.61,0,.18,2-.18,4,0,6C99.25,124.41,100,124.16,100.25,126.34Z" fill="#0b0b7f" stroke="#020202" stroke-miterlimit="10" stroke-width="0.75"/><path id="face-2" data-name="face" d="M81,52.7s-.51,8.62-.69,9.33a12.16,12.16,0,0,1-1.38,3.34C75.81,71,71.39,77.89,64.24,77.49c-6.76-.37-9.24-3.91-13.09-9A26.8,26.8,0,0,1,47,61.21a39.77,39.77,0,0,1-.25-4.06l-.45.11s-.06.9-.84,1c-1.12.14-1.79-1.27-2.08-2.13-.49-1.44-.26-2.93-.26-4.58s-2.58-6,0-7.44c1.75-.94,1.55.29,2.08,1.78a13.29,13.29,0,0,1,.41,1.53l.32-.07s0-2.79,0-4.76c.09-3.64-1-7.71.33-11.23C50.75,19.74,55,19.3,65.43,19c9.3-.3,14.52,7.24,15.22,10.7a34,34,0,0,1,.82,8.41C81.33,40.63,81,47,81,47l.3.06A26.7,26.7,0,0,1,82.52,44a1.61,1.61,0,0,1,3,1.2c-.28,1-.77,3.89-1,5.05a15.62,15.62,0,0,0,0,2.56c0,.77-.34,3.47-1.48,3.44C82.35,56.19,80.62,56.24,81,52.7Z" fill="#fce7d4" stroke="#020202" stroke-miterlimit="10" stroke-width="0.75"/><path id="nose-4" data-name="nose" d="M63.4,53.45a7.83,7.83,0,0,0,3,1.33c5.63.49-2.64,5.19-3.63,3.35" fill="none" stroke="#231f20" stroke-miterlimit="10" stroke-width="0.75"/><g id="hat-3" data-name="hat"><path d="M76,17.71a50.82,50.82,0,0,1,2.88,4.37c.84,1.58,3.37,8,2.84,11A77.36,77.36,0,0,0,81.09,42c0,.32-1-3.9-2.29-4.93s-3.18-4.39-3.61-7.58S74.93,18.16,76,17.71Z" fill="#0b0b7f" stroke="#020202" stroke-miterlimit="10" stroke-width="0.75"/></g><path id="front_of_hat" data-name="front of hat" d="M45.55,32.93s.11-5.52,0-7.82,2.83-6.82,5.57-7.61,9.06-3.95,10.32-3.85,9.74,1,11.32,1.94,2.9.27,3.64,3.33.63,10.64.84,12.43a36.23,36.23,0,0,1,0,5Z" fill="#fcd8d6" stroke="#020202" stroke-miterlimit="10" stroke-width="0.75"/><path d="M80.51,40.72s.1-5.32-4.74-6.72a67.79,67.79,0,0,0-22.33-1.92,67.79,67.79,0,0,0-11.35,1.54c-1.33.32-4.21.72-4.5,2.48-.11.67,1.18,1,1.63,1.22a14,14,0,0,0,5.05,1.08,11,11,0,0,0,1.18,1.27,2.24,2.24,0,0,1,.61-2.35c1.16-.92,5.8-2.18,12.43-2.29A93.19,93.19,0,0,1,77,37.32,7,7,0,0,1,80.51,40.72Z" fill="#0b0b7f" stroke="#020202" stroke-miterlimit="10" stroke-width="0.75"/><path id="mouth-4" data-name="mouth" d="M66.31,66A8.83,8.83,0,0,1,58,65" fill="none" stroke="#020202" stroke-miterlimit="10" stroke-width="0.75"/><g id="eyes-5" data-name="eyes"><path d="M70,45.82a1.29,1.29,0,0,0,1.26,1.3,1.31,1.31,0,0,0,1-1.5,1.17,1.17,0,1,0-2.28.2Z" fill="#fff" stroke="#020202" stroke-miterlimit="10" stroke-width="0.75"/><path d="M59.09,45.61a1.17,1.17,0,1,0,1-1.5A1.29,1.29,0,0,0,59.09,45.61Z" fill="#fff" stroke="#020202" stroke-miterlimit="10" stroke-width="0.75"/><path d="M61.06,49.31s-1.25,1.6-2.35,1.3a4,4,0,0,1-1.7-1" fill="none" stroke="#231f20" stroke-miterlimit="10" stroke-width="0.75"/><path d="M73.16,49.31s-1.25,1.6-2.35,1.3a3.87,3.87,0,0,1-1.7-1" fill="none" stroke="#231f20" stroke-miterlimit="10" stroke-width="0.75"/><path d="M61.29,40.38s-2.35-2.61-4,.35-2.24,4.36-2.24,4.36" fill="none" stroke="#231f20" stroke-miterlimit="10" stroke-width="0.75"/><path d="M69.86,40.84s1.59-1.75,3.41.59a14.4,14.4,0,0,1,2.4,4.43" fill="none" stroke="#231f20" stroke-miterlimit="10" stroke-width="0.75"/></g></g><g id="Layer_140" data-name="Layer 140"><g id="zipper"><rect x="63.56" y="89.2" width="2.95" height="8.66" transform="translate(7.04 -4.52) rotate(4.21)" fill="#020202" stroke="#020202" stroke-miterlimit="10" stroke-width="0.75"/><rect x="64.81" y="85.93" width="1.24" height="3.27" fill="#020202" stroke="#020202" stroke-miterlimit="10" stroke-width="0.75"/><path d="M65.19,87s1.12-.5.39,16.43c-.6,13.8,0,22.92,0,22.92" fill="none" stroke="#020202" stroke-miterlimit="10" stroke-width="0.75"/></g></g></svg>